<?xml version="1.0" encoding="UTF-8"?> <svg xmlns="http://www.w3.org/2000/svg" width="26" height="22" viewBox="0 0 26 22" fill="none"> <path d="M8.51994 21.3299C10.3199 21.3299 11.7899 20.6099 13.0499 19.1699C15.1499 16.7699 15.5999 13.6199 15.5999 11.0099C15.5999 8.42991 15.1499 5.21991 13.0499 2.81991C11.7899 1.37991 10.2899 0.659912 8.51994 0.659912C6.74994 0.659912 5.24994 1.37991 3.98994 2.81991C1.88994 5.21991 1.43994 8.42991 1.43994 11.0099C1.43994 13.6199 1.88994 16.7699 3.98994 19.1699C5.24994 20.6099 6.71994 21.3299 8.51994 21.3299ZM8.51994 3.35991C9.29994 3.35991 10.3499 3.68991 11.2199 5.00991C12.3299 6.65991 12.5999 9.23991 12.5999 10.9799C12.5999 12.7499 12.3299 15.2999 11.2199 16.9799C10.3499 18.2999 9.29994 18.6299 8.51994 18.6299C7.73994 18.6299 6.68994 18.2999 5.81994 16.9799C4.70994 15.2999 4.43994 12.7499 4.43994 10.9799C4.43994 9.23991 4.70994 6.65991 5.81994 5.00991C6.68994 3.68991 7.73994 3.35991 8.51994 3.35991Z" fill="black"></path> <path d="M22.2433 20.9999H25.3033V0.989911H20.4433L18.7633 3.80991H22.2433V20.9999Z" fill="black"></path> <path d="M0.4779 17.6553L2.86374 18.2945L16.7697 3.983L14.3655 3.3388L0.4779 17.6553Z" fill="black"></path> </svg> 