<?xml version="1.0" encoding="UTF-8"?> <svg xmlns="http://www.w3.org/2000/svg" width="30" height="33" viewBox="0 0 30 33" fill="none"> <path d="M19.316 12.078H16.768C16.8373 10.7087 17.3313 9.582 18.25 8.698C19.1687 7.814 20.434 7.372 22.046 7.372C23.6233 7.372 24.8713 7.84867 25.79 8.802C26.622 9.65133 27.038 10.752 27.038 12.104C27.038 12.9707 26.8387 13.7333 26.44 14.392C26.0413 15.016 25.5213 15.5013 24.88 15.848C25.608 16.1253 26.18 16.5847 26.596 17.226C27.0813 17.9367 27.324 18.8293 27.324 19.904C27.324 21.4987 26.83 22.79 25.842 23.778C24.8367 24.7833 23.424 25.286 21.604 25.286C19.9227 25.286 18.6313 24.8007 17.73 23.83C16.8807 22.9287 16.3867 21.75 16.248 20.294H18.796C18.9347 21.074 19.2467 21.698 19.732 22.166C20.2867 22.686 20.9887 22.946 21.838 22.946C22.6527 22.946 23.3287 22.7033 23.866 22.218C24.4727 21.646 24.776 20.8313 24.776 19.774C24.776 18.9073 24.516 18.2227 23.996 17.72C23.4587 17.2 22.7133 16.94 21.76 16.94H21.24V14.704H21.604C22.5747 14.704 23.3113 14.4527 23.814 13.95C24.2647 13.4993 24.49 12.884 24.49 12.104C24.49 11.3933 24.2647 10.8127 23.814 10.362C23.3633 9.92867 22.748 9.712 21.968 9.712C21.136 9.712 20.4947 9.946 20.044 10.414C19.8707 10.6047 19.7233 10.8387 19.602 11.116C19.4807 11.376 19.4027 11.584 19.368 11.74C19.3333 11.896 19.316 12.0087 19.316 12.078Z" fill="black"></path> <path d="M7.0368 24.8514C8.61176 24.8514 9.89801 24.2295 11.0005 22.9859C12.838 20.9132 13.2318 18.1927 13.2318 15.9386C13.2318 13.7105 12.838 10.9382 11.0005 8.86545C9.89801 7.62182 8.58551 7 7.0368 7C5.48805 7 4.17555 7.62182 3.07305 8.86545C1.23555 10.9382 0.841797 13.7105 0.841797 15.9386C0.841797 18.1927 1.23555 20.9132 3.07305 22.9859C4.17555 24.2295 5.4618 24.8514 7.0368 24.8514ZM7.0368 9.33182C7.7193 9.33182 8.63801 9.61682 9.39926 10.7568C10.3705 12.1818 10.6068 14.41 10.6068 15.9127C10.6068 17.4414 10.3705 19.6436 9.39926 21.0945C8.63801 22.2345 7.7193 22.5195 7.0368 22.5195C6.3543 22.5195 5.43555 22.2345 4.6743 21.0945C3.70305 19.6436 3.4668 17.4414 3.4668 15.9127C3.4668 14.41 3.70305 12.1818 4.6743 10.7568C5.43555 9.61682 6.3543 9.33182 7.0368 9.33182Z" fill="black"></path> <path d="M0 21.6777L2.08761 22.2298L14.2553 9.86983L12.1517 9.31348L0 21.6777Z" fill="black"></path> </svg> 