<?xml version="1.0" encoding="UTF-8"?> <svg xmlns="http://www.w3.org/2000/svg" width="33" height="23" viewBox="0 0 33 23" fill="none"> <path d="M8.63762 22.33C10.4376 22.33 11.9076 21.61 13.1676 20.17C15.2676 17.77 15.7176 14.62 15.7176 12.01C15.7176 9.43002 15.2676 6.22002 13.1676 3.82002C11.9076 2.38002 10.4076 1.66002 8.63762 1.66002C6.86762 1.66002 5.36762 2.38002 4.10762 3.82002C2.00762 6.22002 1.55762 9.43002 1.55762 12.01C1.55762 14.62 2.00762 17.77 4.10762 20.17C5.36762 21.61 6.83762 22.33 8.63762 22.33ZM8.63762 4.36002C9.41762 4.36002 10.4676 4.69002 11.3376 6.01002C12.4476 7.66002 12.7176 10.24 12.7176 11.98C12.7176 13.75 12.4476 16.3 11.3376 17.98C10.4676 19.3 9.41762 19.63 8.63762 19.63C7.85762 19.63 6.80762 19.3 5.93762 17.98C4.82762 16.3 4.55762 13.75 4.55762 11.98C4.55762 10.24 4.82762 7.66002 5.93762 6.01002C6.80762 4.69002 7.85762 4.36002 8.63762 4.36002Z" fill="black"></path> <path d="M30.1467 0.52002L17.3067 18.22H27.2067V22H30.1467V18.22H32.3067V15.4H30.1467V0.52002ZM22.6467 15.46L27.2067 9.01002V15.46H22.6467Z" fill="black"></path> <path d="M0.595576 18.6553L2.98141 19.2945L16.8873 4.983L14.4832 4.3388L0.595576 18.6553Z" fill="black"></path> </svg> 