<?xml version="1.0" encoding="UTF-8"?> <svg xmlns="http://www.w3.org/2000/svg" width="32" height="22" viewBox="0 0 32 22" fill="none"> <path d="M8.51994 21.3299C10.3199 21.3299 11.7899 20.6099 13.0499 19.1699C15.1499 16.7699 15.5999 13.6199 15.5999 11.0099C15.5999 8.42991 15.1499 5.21991 13.0499 2.81991C11.7899 1.37991 10.2899 0.659912 8.51994 0.659912C6.74994 0.659912 5.24994 1.37991 3.98994 2.81991C1.88994 5.21991 1.43994 8.42991 1.43994 11.0099C1.43994 13.6199 1.88994 16.7699 3.98994 19.1699C5.24994 20.6099 6.71994 21.3299 8.51994 21.3299ZM8.51994 3.35991C9.29994 3.35991 10.3499 3.68991 11.2199 5.00991C12.3299 6.65991 12.5999 9.23991 12.5999 10.9799C12.5999 12.7499 12.3299 15.2999 11.2199 16.9799C10.3499 18.2999 9.29994 18.6299 8.51994 18.6299C7.73994 18.6299 6.68994 18.2999 5.81994 16.9799C4.70994 15.2999 4.43994 12.7499 4.43994 10.9799C4.43994 9.23991 4.70994 6.65991 5.81994 5.00991C6.68994 3.68991 7.73994 3.35991 8.51994 3.35991Z" fill="black"></path> <path d="M31.6607 0.989911H23.3807L20.4107 11.0999C20.9807 10.7099 21.5507 10.4399 22.1807 10.1999C22.9907 9.89991 23.6507 9.77991 24.5207 9.77991C25.4807 9.77991 26.8007 9.95991 27.7907 10.8899C28.4207 11.4899 28.9907 12.4799 28.9907 14.1299C28.9907 15.8399 28.3007 16.9199 27.7007 17.5199C27.1907 17.9999 26.2607 18.6299 24.6407 18.6299C23.6207 18.6299 22.6907 18.3899 22.0307 17.9399C21.1007 17.3399 20.5607 16.3499 20.5007 16.1999L18.1907 18.1199C19.1207 19.5599 20.2607 20.2499 20.5607 20.4299C21.8507 21.1799 23.2307 21.3299 24.4007 21.3299C26.4407 21.3299 28.3607 20.8499 29.9507 19.2899C31.3007 17.9399 31.9907 16.1699 31.9907 13.9799C31.9907 11.3699 31.0007 9.77991 30.0407 8.84991C28.8107 7.64991 27.1007 7.07991 25.4207 7.07991C25.1207 7.07991 24.7907 7.10991 24.4907 7.13991L25.4807 3.80991H31.6607V0.989911Z" fill="black"></path> <path d="M0.4779 17.6553L2.86374 18.2945L16.7697 3.983L14.3655 3.3388L0.4779 17.6553Z" fill="black"></path> </svg> 